<?xml version="1.0" standalone="no"?>
<!DOCTYPE svg PUBLIC "-//W3C//DTD SVG 20010904//EN"
 "http://www.w3.org/TR/2001/REC-SVG-20010904/DTD/svg10.dtd">
<svg version="1.0" xmlns="http://www.w3.org/2000/svg"
 width="1994.000000pt" height="972.000000pt" viewBox="0 0 1994.000000 972.000000"
 preserveAspectRatio="xMidYMid meet">

<g transform="translate(0.000000,972.000000) scale(0.100000,-0.100000)" stroke="none">
<path d="M10450 9455 c0 -23 -125 -141 -174 -165 -38 -18 -51 -19 -112 -11
-39 6 -97 17 -129 25 -97 24 -286 36 -559 36 -290 0 -469 -12 -606 -40 -52
-11 -148 -29 -213 -40 -65 -11 -146 -31 -180 -44 -34 -13 -85 -26 -114 -29
-29 -3 -69 -15 -90 -26 -21 -12 -69 -33 -108 -48 -73 -28 -296 -135 -378 -181
-26 -15 -49 -34 -52 -42 -3 -8 -22 -26 -42 -39 -21 -13 -62 -40 -90 -59 l-53
-34 -277 -2 c-278 -2 -278 -2 -348 -29 -38 -16 -89 -32 -113 -38 -66 -14 -153
-88 -191 -161 -17 -33 -31 -73 -31 -87 0 -15 20 -54 48 -92 53 -75 32 -67 247
-93 61 -8 205 -19 320 -25 543 -30 532 -29 596 -57 150 -68 227 -261 152 -381
-32 -53 -118 -116 -183 -135 -25 -7 -92 -13 -150 -13 -101 0 -108 2 -174 35
-72 37 -106 70 -106 102 0 10 -9 37 -21 59 -35 70 -141 99 -235 65 -42 -15
-294 -138 -384 -187 -30 -16 -93 -52 -140 -78 -47 -27 -137 -74 -200 -106 -63
-31 -122 -63 -131 -71 -9 -8 -39 -23 -66 -34 -90 -34 -236 -120 -279 -164 -24
-24 -58 -49 -76 -56 -37 -15 -118 -77 -118 -90 0 -4 17 -11 38 -14 20 -3 96
-15 167 -27 141 -23 349 -23 490 0 39 6 114 18 169 26 54 8 119 24 144 35 53
24 214 50 304 50 88 0 137 -16 179 -59 45 -45 57 -93 39 -159 -20 -72 -135
-181 -268 -253 l-102 -56 -207 -33 c-205 -33 -208 -33 -452 -27 -183 5 -276
12 -361 27 -132 24 -448 37 -602 26 -96 -8 -97 -8 -107 -38 -26 -74 -7 -149
64 -263 63 -100 105 -139 203 -186 114 -55 190 -62 489 -47 258 13 311 7 370
-45 45 -40 63 -82 63 -147 0 -65 -21 -105 -68 -128 -63 -32 -85 -33 -249 -7
-174 27 -233 30 -314 15 -82 -16 -120 -40 -156 -101 -48 -80 -45 -113 16 -173
l50 -49 128 0 c77 0 162 6 213 16 170 32 196 32 306 -2 108 -33 138 -55 154
-112 21 -73 -1 -199 -45 -251 -43 -51 -69 -191 -46 -246 15 -36 42 -42 196
-42 129 1 180 15 270 76 68 47 262 139 315 149 19 4 56 16 83 26 72 29 167 33
282 14 158 -26 296 -30 395 -11 47 8 130 20 185 27 68 7 121 20 165 39 36 15
83 33 105 40 40 12 138 53 230 95 86 40 135 49 270 49 126 1 132 0 185 -29 30
-17 73 -48 96 -70 56 -54 64 -98 64 -338 0 -169 -3 -197 -20 -235 -31 -68 -50
-72 -359 -82 -146 -5 -284 -13 -306 -20 -24 -7 -189 -15 -410 -20 -443 -11
-687 -24 -895 -50 -85 -10 -245 -22 -355 -25 -246 -8 -583 -31 -650 -45 -27
-6 -159 -17 -292 -25 -133 -8 -345 -27 -470 -44 -125 -16 -288 -34 -362 -41
-74 -6 -164 -17 -201 -25 -37 -8 -147 -21 -246 -29 -98 -8 -226 -24 -284 -35
-116 -22 -214 -37 -305 -47 -33 -3 -94 -15 -135 -25 -41 -11 -138 -26 -215
-34 -77 -9 -183 -24 -235 -35 -180 -39 -205 -42 -324 -43 -118 -2 -119 -2
-139 25 -25 34 -40 189 -35 368 3 109 7 132 28 175 38 75 87 97 207 93 66 -3
97 -8 110 -20 30 -26 94 -54 178 -79 66 -18 110 -23 250 -26 263 -5 312 -14
432 -74 70 -35 118 -53 150 -55 44 -4 50 -1 76 31 l28 34 -20 47 c-27 61 -36
141 -19 174 7 14 33 35 58 48 48 24 44 23 256 6 79 -6 81 -6 87 17 4 13 7 36
7 50 0 41 -58 58 -208 62 -112 4 -124 6 -147 27 -32 30 -32 56 0 103 42 61 63
67 245 67 184 0 195 3 259 76 45 52 60 89 42 107 -9 9 -113 12 -389 12 -279 0
-382 3 -397 12 -11 7 -55 28 -97 48 -85 39 -131 85 -150 149 -10 31 -9 43 3
64 34 61 106 66 301 21 75 -17 174 -33 228 -36 86 -4 99 -2 140 19 24 13 45
28 47 34 2 6 -20 21 -49 34 -29 13 -63 32 -74 42 -12 11 -57 41 -100 68 -44
27 -90 57 -104 68 -61 47 -335 175 -374 175 -19 0 -36 -8 -49 -24 -10 -13 -41
-48 -69 -78 l-50 -54 -67 6 c-164 14 -227 87 -171 198 21 40 87 96 124 104 12
3 113 9 226 14 208 10 283 24 311 57 18 22 15 71 -5 93 -21 23 -140 57 -229
66 -158 14 -239 41 -472 155 -127 63 -194 82 -309 91 -66 4 -137 16 -176 29
-97 32 -320 34 -405 4 -33 -12 -96 -25 -140 -29 -75 -6 -82 -5 -118 19 -59 40
-75 40 -147 4 -47 -24 -66 -39 -68 -55 -2 -13 -10 -23 -17 -23 -8 0 -33 -7
-55 -16 -31 -13 -39 -20 -34 -33 37 -87 37 -87 -9 -136 l-42 -45 -91 -4 c-73
-2 -101 -8 -147 -29 -30 -15 -62 -27 -69 -27 -18 0 -127 66 -159 96 -49 46
-295 65 -421 33 -42 -11 -58 -33 -58 -81 0 -26 -6 -37 -31 -50 -32 -19 -31
-38 1 -38 10 0 53 -14 96 -31 42 -17 107 -36 143 -43 64 -12 66 -13 69 -44 2
-19 10 -33 21 -37 22 -7 41 -46 41 -85 0 -49 -72 -86 -180 -92 -64 -4 -101
-20 -241 -106 -26 -15 -32 -14 -115 13 -75 24 -110 29 -222 33 l-132 4 -48
-31 c-27 -17 -54 -31 -60 -31 -7 0 -29 -16 -50 -35 -30 -27 -41 -47 -51 -89
l-12 -55 33 -34 c31 -30 41 -34 109 -40 80 -7 135 -22 161 -44 9 -8 43 -21 75
-28 33 -8 83 -30 112 -49 29 -20 57 -36 62 -36 5 0 9 -33 9 -73 l0 -74 -40
-12 c-48 -14 -76 -39 -61 -54 6 -6 11 -21 11 -34 0 -19 -9 -25 -52 -37 -29 -8
-70 -17 -91 -21 -31 -5 -40 -12 -49 -36 -10 -29 -11 -29 -83 -29 -40 0 -87 -3
-104 -6 -27 -6 -32 -11 -29 -32 2 -16 11 -28 23 -32 11 -3 44 -19 73 -35 118
-67 138 -75 174 -75 24 0 43 6 53 18 7 9 23 28 33 41 19 25 20 25 95 13 42 -6
108 -24 147 -39 60 -24 72 -32 78 -57 7 -27 15 -32 65 -44 46 -12 61 -20 73
-43 8 -16 11 -29 7 -30 -5 0 6 -5 22 -10 17 -5 70 -6 118 -3 l88 7 -7 -27 -6
-26 118 0 c145 0 185 -15 261 -96 l52 -56 105 4 c98 3 106 5 133 31 23 22 43
29 101 36 41 5 86 18 106 30 18 12 68 30 110 41 41 10 84 24 95 29 10 6 44 14
76 17 l56 7 46 -44 c25 -24 52 -60 60 -79 36 -83 24 -506 -15 -560 -27 -37
-177 -86 -303 -100 -57 -6 -130 -22 -165 -35 -39 -15 -98 -27 -151 -31 -57 -4
-123 -18 -188 -39 -55 -18 -135 -38 -178 -45 -43 -6 -122 -22 -175 -35 -53
-13 -133 -28 -176 -34 -45 -7 -87 -18 -97 -27 -10 -9 -65 -26 -121 -39 -57
-12 -118 -30 -136 -39 -18 -9 -71 -21 -117 -27 -92 -10 -140 -24 -115 -32 70
-24 295 -9 433 29 77 21 126 27 297 33 185 8 213 11 285 36 69 24 104 29 255
36 121 6 195 15 240 28 92 27 129 31 360 40 189 8 211 11 275 36 67 26 82 28
312 36 202 7 255 12 320 30 51 15 114 24 183 26 355 11 541 24 630 43 71 16
157 23 340 30 300 11 357 16 440 40 71 20 136 25 530 41 146 5 366 19 490 29
249 21 517 35 990 51 173 5 358 17 410 25 144 22 787 32 2535 39 1272 6 1687
4 2315 -9 735 -15 1203 -31 1245 -41 11 -3 250 -12 530 -20 535 -15 751 -27
925 -50 61 -8 248 -16 450 -20 392 -7 616 -20 710 -40 116 -26 219 -35 378
-35 213 0 403 -16 498 -41 71 -19 119 -22 469 -29 l390 -8 60 -28 c59 -27 64
-28 315 -35 260 -7 430 -23 441 -41 11 -17 143 -27 339 -27 187 0 266 10 185
23 -95 15 -201 39 -258 57 -34 11 -100 23 -147 26 -56 4 -111 15 -163 34 -59
22 -96 29 -151 29 -68 0 -190 22 -301 54 -27 8 -106 19 -175 25 -69 6 -165 22
-215 35 -49 13 -137 27 -195 31 -148 10 -407 74 -436 109 -29 33 -36 117 -31
341 7 266 16 280 171 280 89 0 108 -3 156 -27 30 -14 83 -31 117 -37 67 -13
128 -35 138 -51 3 -5 25 -15 48 -21 23 -6 70 -22 105 -35 34 -13 75 -24 90
-24 36 0 83 30 116 73 18 23 46 43 84 58 31 12 67 31 79 42 21 19 30 20 135
12 162 -13 239 -11 361 5 128 16 144 24 126 62 -16 37 -5 71 40 118 l38 40 87
0 c104 0 126 -9 214 -84 l64 -54 31 18 c18 10 56 25 84 35 34 11 60 27 73 45
11 16 40 36 65 46 38 14 45 21 45 45 0 40 -10 59 -31 59 -14 0 -19 7 -19 30 0
40 -23 45 -166 36 -129 -7 -134 -4 -134 72 0 39 -1 40 -44 51 -25 6 -69 11
-99 11 -59 0 -71 8 -122 87 -22 35 -26 49 -20 79 9 49 42 80 96 89 24 4 53 15
64 26 35 31 169 88 262 109 96 23 128 39 138 69 9 30 -21 78 -68 107 -23 14
-47 33 -54 41 -7 8 -58 22 -130 34 -102 16 -130 18 -211 8 -140 -17 -219 -9
-270 29 -33 24 -57 31 -111 37 -54 5 -84 15 -133 44 -62 36 -63 37 -66 85 -2
31 2 56 12 71 24 37 94 73 184 95 45 11 98 31 118 45 19 13 56 27 82 30 26 4
65 12 87 18 l40 10 -82 12 c-46 6 -88 16 -95 23 -9 9 -12 37 -10 84 2 69 2 70
-20 63 -13 -4 -86 -9 -163 -11 -258 -6 -301 -17 -388 -94 -60 -53 -104 -61
-172 -31 -27 12 -67 24 -89 27 -23 3 -71 12 -107 20 l-67 16 -7 61 c-3 34 -3
63 2 64 28 10 74 46 67 52 -5 4 -29 13 -54 20 -65 19 -139 58 -183 97 -46 42
-79 43 -132 7 -36 -25 -50 -28 -145 -32 -58 -2 -170 2 -250 9 -185 15 -402 -5
-550 -50 -52 -16 -108 -32 -125 -36 -16 -4 -57 -20 -89 -37 -33 -16 -78 -36
-100 -43 -22 -8 -74 -34 -116 -58 -95 -55 -151 -66 -337 -66 -119 0 -143 -2
-143 -15 0 -8 -13 -30 -30 -48 -54 -62 -29 -116 55 -123 144 -12 272 -28 370
-45 61 -10 127 -21 149 -24 21 -4 49 -17 62 -30 22 -22 24 -33 24 -107 -1 -89
-2 -94 -64 -147 -40 -34 -40 -34 -119 -28 -90 7 -165 43 -206 98 -21 28 -27
31 -63 25 -22 -4 -52 -16 -67 -27 -15 -11 -47 -25 -71 -30 -24 -6 -53 -21 -66
-34 -12 -13 -38 -28 -58 -33 -19 -6 -62 -26 -95 -46 -32 -20 -63 -36 -69 -36
-6 0 -23 -16 -38 -35 -18 -24 -34 -35 -53 -35 -40 0 -56 -14 -35 -31 26 -21
136 -23 310 -4 104 11 187 15 240 10 81 -7 82 -7 88 -37 3 -17 6 -52 6 -77 0
-51 -14 -69 -124 -156 -46 -36 -58 -40 -205 -68 -133 -25 -172 -28 -266 -24
-60 3 -135 13 -165 21 -35 10 -97 16 -167 16 l-113 0 0 -41 c0 -48 27 -98 68
-125 24 -17 48 -19 192 -19 154 0 167 -2 201 -22 20 -13 44 -23 53 -23 26 0
49 -66 44 -127 -3 -29 -8 -56 -12 -60 -4 -5 -80 -8 -169 -8 l-162 0 -3 -42 -3
-43 160 0 c100 0 170 -4 185 -12 41 -18 59 -56 64 -133 4 -68 3 -71 -28 -102
-25 -25 -31 -37 -28 -64 l3 -34 63 -3 c55 -3 68 0 95 21 18 13 41 27 53 31 16
5 84 57 88 68 1 1 118 4 261 7 l260 6 50 29 c38 23 68 31 125 36 57 5 83 12
108 30 27 20 47 25 120 28 l87 4 42 -37 c25 -21 55 -62 74 -100 l31 -64 -4
-183 c-5 -230 -13 -252 -102 -269 -48 -9 -250 12 -381 41 -49 11 -156 24 -237
30 -81 5 -194 19 -250 30 -65 13 -180 24 -313 30 -227 11 -356 24 -450 46 -34
8 -173 19 -325 25 -198 8 -299 17 -400 35 -152 27 -304 40 -631 54 -137 6
-275 18 -350 30 -96 16 -203 23 -474 30 -192 6 -422 17 -510 26 -88 9 -207 20
-265 25 -60 6 -576 10 -1215 10 -645 -1 -1145 3 -1194 9 -92 10 -126 27 -143
68 -16 42 -23 327 -9 408 15 83 41 115 118 144 91 34 175 36 268 7 44 -14 103
-29 130 -32 79 -11 124 -24 133 -41 6 -10 46 -23 113 -36 63 -12 112 -27 124
-38 11 -10 36 -21 55 -25 19 -4 44 -13 55 -19 11 -7 79 -32 150 -56 129 -43
165 -58 258 -105 42 -22 60 -25 158 -25 106 0 112 1 131 25 10 13 38 30 61 36
79 21 106 39 141 98 35 57 83 107 146 151 34 24 42 25 215 28 164 3 223 -1
428 -27 54 -7 87 -5 156 9 50 10 164 21 260 25 163 7 174 9 209 33 23 16 56
28 88 32 l50 5 -8 33 c-6 22 -20 39 -39 50 -30 17 -30 18 -27 87 3 59 8 78 35
118 17 26 46 59 65 72 18 13 43 32 56 41 27 20 142 30 225 20 44 -6 67 -16
119 -56 35 -26 70 -55 77 -64 7 -9 18 -16 24 -16 5 0 29 -18 53 -40 24 -22 50
-40 58 -40 7 0 19 -14 27 -31 12 -31 13 -31 68 -24 75 10 111 10 142 1 23 -7
28 -4 37 22 10 30 39 42 103 42 18 0 32 7 39 20 6 11 29 24 53 30 23 6 78 29
122 50 141 69 193 88 272 101 61 10 84 19 107 41 17 15 34 28 38 28 5 0 18 20
30 44 29 61 18 104 -36 130 -24 12 -42 29 -48 47 -10 30 -51 58 -198 135 l-75
39 -130 0 -130 0 -55 -35 c-46 -30 -65 -35 -125 -38 -65 -4 -74 -2 -101 21
l-29 25 0 143 0 143 -35 15 c-27 11 -68 14 -176 13 -151 -2 -171 2 -262 52
l-52 29 0 51 c0 30 6 61 15 73 27 39 128 91 325 168 107 41 221 87 252 101 50
22 81 26 266 38 206 13 210 13 248 42 21 16 45 36 52 44 22 25 72 134 72 156
0 11 -16 52 -35 91 -29 60 -51 86 -130 157 -81 72 -117 95 -240 156 -187 93
-380 154 -485 154 -103 0 -313 -58 -409 -113 -35 -19 -62 -26 -127 -29 -78 -4
-85 -3 -138 28 -31 17 -80 53 -108 79 -58 53 -59 53 -254 71 -116 11 -241 46
-277 77 -48 43 -63 150 -31 218 32 69 107 114 212 127 72 9 336 89 397 120 34
18 220 60 344 78 122 19 153 61 94 131 -50 59 -115 71 -235 45 -135 -30 -135
-30 -163 18 -43 73 -37 90 62 183 83 77 87 83 78 110 -6 15 -22 33 -35 40 -34
17 -124 16 -190 -2 -30 -8 -86 -24 -125 -34 -38 -11 -93 -29 -122 -41 -59 -25
-87 -22 -131 15 -26 22 -39 25 -110 25 -73 0 -86 -3 -149 -37 -64 -34 -75 -36
-178 -41 -137 -6 -163 -18 -241 -113 -32 -40 -86 -92 -119 -116 -88 -64 -142
-59 -272 24 l-58 37 -160 6 c-180 7 -196 12 -253 82 -47 59 -50 82 -17 145 57
109 134 154 298 172 62 7 82 14 120 42 52 38 56 51 25 73 -30 21 -85 20 -275
-5 -287 -38 -376 -13 -475 134 -23 34 -54 74 -70 89 -15 14 -28 35 -28 47 0
20 -5 21 -80 21 -65 0 -80 -3 -80 -15z"/>
<path d="M1795 3165 c-234 -38 -433 -123 -544 -233 -80 -79 -118 -151 -134
-252 -39 -252 122 -450 448 -553 143 -45 254 -59 495 -64 253 -6 402 8 556 52
104 29 252 100 307 146 46 38 120 129 112 137 -3 4 -86 11 -183 17 l-177 11
-47 -52 c-116 -126 -345 -186 -615 -163 -295 25 -493 148 -529 327 l-6 32 787
0 788 0 -6 88 c-15 248 -199 404 -582 493 -120 28 -530 36 -670 14z m451 -140
c117 -11 269 -68 340 -129 34 -27 80 -108 86 -146 l3 -25 -587 -3 c-555 -2
-588 -1 -588 15 1 65 100 177 193 218 164 72 318 92 553 70z"/>
<path d="M6099 3165 c-257 -42 -452 -127 -566 -248 -90 -95 -129 -206 -120
-339 16 -243 222 -410 603 -489 141 -29 519 -38 690 -15 281 37 499 137 598
274 19 26 33 49 30 51 -2 2 -84 9 -181 16 l-178 11 -47 -51 c-116 -126 -344
-187 -615 -164 -266 23 -456 125 -512 274 -12 30 -21 62 -21 70 0 13 103 15
786 15 l787 0 -5 83 c-7 117 -35 183 -113 265 -102 108 -241 178 -455 229 -94
22 -131 25 -350 29 -178 2 -269 -1 -331 -11z m481 -146 c131 -20 256 -75 320
-140 37 -38 84 -135 73 -151 -2 -5 -267 -8 -589 -8 -656 0 -603 -7 -565 75 82
180 412 277 761 224z"/>
<path d="M8391 3165 c-75 -21 -144 -58 -218 -116 l-63 -49 0 80 0 80 -160 0
-160 0 0 -540 0 -540 180 0 179 0 3 338 3 337 33 68 c24 49 45 75 76 96 100
69 247 93 411 67 55 -9 109 -18 120 -21 16 -4 32 11 78 76 32 45 56 83 54 85
-2 2 -39 13 -83 25 -107 28 -373 36 -453 14z"/>
<path d="M9720 3174 c-179 -26 -269 -50 -376 -100 -195 -92 -308 -234 -329
-412 -26 -230 185 -455 505 -536 196 -50 475 -58 668 -21 92 18 200 54 276 92
l49 25 -6 -98 c-10 -145 -46 -202 -165 -263 -153 -78 -551 -94 -759 -30 -65
20 -143 77 -143 105 0 7 -5 16 -10 19 -17 11 -334 33 -344 25 -4 -4 -1 -32 8
-62 36 -126 184 -206 471 -254 142 -25 548 -25 695 -2 272 44 467 133 540 248
64 101 64 100 68 703 l3 547 -165 0 -166 0 0 -64 0 -64 -62 33 c-153 82 -324
116 -568 114 -91 -1 -176 -3 -190 -5z m346 -148 c129 -10 286 -71 365 -143
136 -123 145 -349 18 -487 -104 -113 -318 -177 -552 -163 -242 14 -418 100
-484 235 -39 80 -45 211 -12 296 55 148 226 245 464 266 44 3 91 5 105 4 14
-2 57 -5 96 -8z"/>
<path d="M12011 3164 c-74 -20 -143 -56 -218 -115 l-63 -49 0 80 0 80 -160 0
-160 0 0 -540 0 -540 175 0 175 0 0 273 c1 149 5 303 9 341 13 97 59 187 118
227 118 81 291 96 523 44 22 -5 32 4 83 77 67 96 74 86 -83 118 -119 24 -317
26 -399 4z"/>
<path d="M13337 3164 c-257 -40 -451 -126 -569 -251 -86 -93 -124 -204 -115
-337 10 -150 104 -283 260 -370 78 -44 244 -100 362 -122 135 -25 514 -31 671
-10 208 27 391 93 506 181 46 35 131 135 122 144 -2 2 -84 10 -181 16 l-178
12 -35 -40 c-115 -133 -352 -200 -627 -176 -296 26 -496 147 -528 322 l-7 37
786 0 786 0 0 58 c0 32 -7 85 -15 117 -55 210 -300 366 -658 419 -131 20 -455
20 -580 0z m483 -145 c128 -19 254 -73 316 -135 39 -40 73 -105 74 -141 l0
-23 -585 0 c-665 0 -608 -9 -559 89 85 170 413 262 754 210z"/>
<path d="M15595 3164 c-313 -48 -554 -184 -635 -357 -84 -178 -52 -365 86
-503 117 -117 347 -205 611 -234 148 -16 506 -8 628 14 206 38 355 102 457
196 53 48 108 117 96 121 -2 0 -82 6 -178 13 l-175 12 -65 -61 c-104 -96 -208
-137 -395 -155 -113 -10 -287 2 -380 26 -172 46 -300 142 -343 257 -12 32 -22
62 -22 67 0 6 289 10 785 10 695 0 786 2 791 15 12 29 -17 170 -46 234 -79
167 -318 300 -628 346 -124 19 -462 18 -587 -1z m452 -139 c78 -7 191 -39 254
-71 92 -46 153 -119 174 -206 l7 -28 -591 0 c-466 0 -591 3 -591 13 0 30 50
115 88 149 85 77 238 133 401 148 84 7 133 6 258 -5z"/>
<path d="M18075 3174 c-164 -25 -297 -68 -398 -128 l-57 -35 0 75 0 74 -160 0
-160 0 0 -540 0 -540 174 0 175 0 3 343 3 342 28 57 c46 94 134 147 306 185
107 23 343 23 430 -1 129 -35 199 -87 221 -164 6 -22 10 -181 10 -399 l0 -363
180 0 180 0 0 375 c0 231 -4 393 -11 425 -22 101 -103 184 -227 230 -131 49
-215 62 -447 65 -121 2 -233 1 -250 -1z"/>
<path d="M3299 3133 c11 -16 190 -257 398 -538 l379 -510 169 -2 170 -3 310
421 c171 232 349 475 398 540 l87 119 -183 0 -183 0 -58 -82 c-253 -355 -487
-691 -511 -731 -15 -27 -31 -45 -36 -40 -4 4 -33 48 -64 97 -31 50 -161 240
-288 423 l-232 333 -188 0 -188 0 20 -27z"/>
<path d="M11395 1577 c-36 -29 -43 -31 -108 -28 -38 1 -98 -1 -133 -4 -59 -7
-64 -9 -64 -31 0 -20 5 -24 30 -24 45 0 78 -20 90 -53 5 -16 10 -73 10 -125 0
-85 -2 -94 -17 -87 -38 14 -143 17 -208 6 -95 -17 -171 -55 -232 -117 -72 -74
-97 -141 -97 -264 -1 -83 3 -102 28 -156 33 -73 83 -125 151 -156 41 -19 67
-23 140 -23 102 1 159 20 212 73 17 18 34 32 37 32 3 0 6 -15 6 -34 0 -61 43
-83 90 -46 19 15 41 20 90 20 59 0 178 15 186 23 2 1 1 13 -3 25 -4 17 -13 22
-39 22 -43 0 -69 26 -84 81 -8 28 -10 173 -8 460 3 418 3 418 -18 428 -17 8
-29 3 -59 -22z m-242 -416 c14 -6 35 -20 46 -32 20 -22 21 -33 21 -228 0 -180
-3 -209 -18 -227 -66 -83 -189 -48 -247 70 -50 103 -46 272 10 357 38 59 121
85 188 60z"/>
<path d="M6810 1537 c0 -18 7 -27 26 -31 43 -11 76 -38 93 -76 13 -29 16 -88
19 -356 4 -369 -2 -424 -48 -467 -17 -15 -44 -30 -61 -34 -23 -4 -29 -11 -29
-30 0 -24 1 -24 58 -18 31 4 87 14 124 22 59 13 75 12 150 -2 101 -19 338 -31
430 -21 42 5 76 15 90 26 21 16 22 22 11 49 -9 26 -7 42 13 106 13 42 24 80
24 85 0 6 -13 10 -29 10 -23 0 -30 -5 -36 -27 -24 -96 -86 -134 -230 -141
-128 -6 -169 8 -184 65 -14 49 -15 621 -1 694 11 61 50 106 101 116 23 4 29
11 29 30 0 24 -2 25 -52 18 -29 -3 -91 -13 -137 -21 -76 -14 -94 -14 -170 0
-47 8 -110 18 -138 21 -52 7 -53 6 -53 -18z"/>
<path d="M8050 1230 c-95 -20 -170 -65 -194 -115 -46 -96 28 -166 142 -136
l42 12 -7 59 c-5 56 -4 60 25 89 30 31 76 40 117 25 29 -12 45 -60 45 -138 0
-103 10 -96 -205 -145 -116 -27 -188 -62 -214 -105 -43 -69 -39 -145 11 -201
81 -92 300 -81 399 21 l33 34 20 -37 c33 -58 68 -78 134 -77 59 0 99 16 159
61 26 20 30 29 24 46 -7 18 -15 21 -43 19 -58 -5 -62 8 -69 217 -4 113 -12
202 -20 226 -18 52 -83 117 -134 133 -52 17 -208 24 -265 12z m170 -439 c0
-124 -28 -171 -102 -171 -54 1 -88 40 -88 101 0 25 10 42 43 73 35 34 106 72
140 75 4 1 7 -34 7 -78z"/>
<path d="M8894 1212 c-33 -24 -53 -30 -122 -36 -127 -10 -142 -15 -142 -42 0
-17 6 -24 19 -24 10 0 29 -8 42 -19 22 -18 24 -26 30 -202 10 -245 28 -302
111 -349 35 -20 57 -24 123 -25 111 0 168 19 227 75 l48 46 6 -47 c5 -36 12
-50 30 -60 21 -11 30 -10 63 9 29 16 56 22 103 22 57 0 166 14 174 23 2 2 1
13 -3 25 -4 17 -13 22 -38 22 -44 0 -81 44 -91 107 -4 25 -5 144 -2 265 5 207
4 219 -14 229 -15 8 -30 4 -69 -20 -43 -27 -58 -31 -123 -31 -107 0 -136 -8
-136 -35 0 -17 7 -24 30 -29 49 -9 60 -50 60 -213 0 -161 -10 -205 -55 -250
-27 -27 -40 -33 -78 -33 -34 0 -50 6 -70 26 -40 40 -48 104 -46 348 2 210 2
220 -18 233 -17 12 -24 10 -59 -15z"/>
<path d="M9904 1213 c-30 -20 -53 -26 -109 -29 -132 -6 -155 -12 -155 -40 0
-19 5 -24 26 -24 38 0 61 -16 73 -51 12 -34 15 -347 5 -411 -8 -45 -36 -77
-75 -85 -22 -4 -29 -11 -29 -29 0 -29 2 -29 135 -9 72 11 114 13 155 6 30 -5
83 -13 118 -16 61 -7 62 -7 62 18 0 19 -6 26 -29 30 -72 15 -85 66 -79 303 3
120 7 156 22 187 43 87 162 91 203 8 16 -32 18 -66 18 -294 0 -141 2 -257 5
-257 3 0 34 7 69 15 50 12 77 13 115 6 28 -6 79 -13 114 -17 61 -7 62 -6 62
18 0 20 -6 27 -29 31 -39 8 -67 40 -75 85 -3 20 -6 96 -6 168 0 268 -48 369
-193 405 -103 25 -236 -14 -294 -86 -15 -19 -32 -35 -37 -35 -5 0 -6 24 -3 53
4 45 2 55 -13 65 -15 9 -25 6 -56 -15z"/>
<path d="M11876 1210 c-40 -26 -56 -30 -115 -30 -103 0 -131 -8 -131 -36 0
-20 5 -24 29 -24 16 0 39 -9 52 -19 23 -19 24 -24 27 -197 5 -272 -5 -316 -78
-331 -23 -4 -30 -11 -30 -30 0 -23 2 -24 48 -18 26 4 78 13 116 21 59 12 79
12 150 0 44 -8 107 -18 139 -22 56 -6 57 -6 57 19 0 21 -6 25 -39 31 -53 8
-90 42 -101 91 -13 55 -12 291 1 338 23 83 103 105 164 44 31 -31 34 -32 52
-17 28 23 55 66 62 102 l6 31 32 -27 c48 -41 110 -146 238 -409 99 -202 116
-243 111 -271 -9 -46 -85 -164 -128 -199 -47 -37 -124 -48 -163 -23 -24 16
-25 15 -40 -13 -21 -42 -19 -76 9 -108 21 -24 32 -28 74 -28 65 0 117 35 189
130 60 78 173 299 276 537 38 86 91 195 120 243 53 90 119 165 143 165 8 0 14
10 14 25 0 29 -1 30 -90 9 -51 -11 -78 -13 -107 -5 -21 5 -64 13 -95 16 -58 7
-58 7 -58 -19 0 -18 5 -26 18 -26 38 -1 72 -48 72 -102 0 -46 -15 -97 -63
-212 l-41 -99 -49 99 c-99 198 -120 284 -72 306 17 7 25 19 25 35 0 23 -2 24
-47 18 -27 -4 -74 -13 -106 -21 -51 -12 -67 -12 -115 0 -89 22 -162 30 -162
17 0 -7 -14 -1 -31 11 -23 17 -44 23 -83 23 -75 0 -125 -35 -163 -114 -37 -79
-55 -80 -47 -3 3 31 7 67 10 79 3 15 -2 26 -15 32 -14 8 -29 4 -65 -19z"/>
</g>
</svg>
